<?xml version="1.0" encoding="UTF-8"?>
<svg width="32px" height="32px" viewBox="0 0 32 32" version="1.1" xmlns="http://www.w3.org/2000/svg" xmlns:xlink="http://www.w3.org/1999/xlink">
    <!-- Generator: Sketch 58 (84663) - https://sketch.com -->
    <title>sam-icon</title>
    <desc>Created with Sketch.</desc>
    <g id="sam-icon" stroke="none" stroke-width="1" fill="none" fill-rule="evenodd">
        <rect fill="#0000FF" x="0" y="0" width="32" height="32"></rect>
        <g id="Group">
            <rect id="Rectangle" fill="#0000FF" x="0" y="0" width="32" height="32"></rect>
            <path d="M15.1772461,25.2373047 C12.7114258,25.2373047 10.3310547,24.7978516 8.93945312,24.1386719 L8.78076172,18.5722656 L9.51318359,18.5722656 C10.1845703,21.9536133 12.5405273,24.1875 14.9941406,24.1875 C16.8129883,24.1875 17.9116211,23.1865234 17.9116211,21.8071289 C17.9116211,20.5474896 17.180658,19.6769112 15.2784464,19.0563564 L13.5048828,18.4868164 C10.2456055,17.4492188 8.5,15.5571289 8.5,12.8349609 C8.5,9.22167969 11.5151367,7 16.6176758,7 C18.9736328,7 20.9389648,7.40283203 22.0253906,8.04980469 L22.0864258,12.8227539 L21.3417969,12.8227539 C20.7558594,10.0639648 19.046875,8.04980469 16.7519531,8.04980469 C14.9086914,8.04980469 13.9199219,8.97753906 13.9199219,10.2836914 C13.9199219,11.4921875 14.6889648,12.2856445 16.6298828,12.9082031 L18.3022461,13.4453125 C21.7324219,14.5317383 23.3071289,16.5825195 23.3071289,19.3535156 C23.3071289,23.1865234 19.8769531,25.2373047 15.1772461,25.2373047 Z" id="S" fill="#FFFFFF" fill-rule="nonzero"></path>
        </g>
    </g>
</svg>