<?xml version="1.0" encoding="UTF-8"?>
<svg width="128px" height="128px" viewBox="0 0 128 128" version="1.1" xmlns="http://www.w3.org/2000/svg" xmlns:xlink="http://www.w3.org/1999/xlink">
    <!-- Generator: Sketch 58 (84663) - https://sketch.com -->
    <title>sam-icon</title>
    <desc>Created with Sketch.</desc>
    <g id="sam-icon" stroke="none" stroke-width="1" fill="none" fill-rule="evenodd">
        <g id="Group" fill="#FFFFFF" fill-rule="nonzero">
            <path d="M60.7089844,100.949219 C50.8457031,100.949219 41.3242188,99.1914062 35.7578125,96.5546875 L35.1230469,74.2890625 L38.0527344,74.2890625 C40.7382812,87.8144531 50.1621094,96.75 59.9765625,96.75 C67.2519531,96.75 71.6464844,92.7460938 71.6464844,87.2285156 C71.6464844,82.1899582 68.7226319,78.7076449 61.1137854,76.2254258 L54.0195312,73.9472656 C40.9824219,69.796875 34,62.2285156 34,51.3398438 C34,36.8867188 46.0605469,28 66.4707031,28 C75.8945312,28 83.7558594,29.6113281 88.1015625,32.1992188 L88.3457031,51.2910156 L85.3671875,51.2910156 C83.0234375,40.2558594 76.1875,32.1992188 67.0078125,32.1992188 C59.6347656,32.1992188 55.6796875,35.9101562 55.6796875,41.1347656 C55.6796875,45.96875 58.7558594,49.1425781 66.5195312,51.6328125 L73.2089844,53.78125 C86.9296875,58.1269531 93.2285156,66.3300781 93.2285156,77.4140625 C93.2285156,92.7460938 79.5078125,100.949219 60.7089844,100.949219 Z" id="S"></path>
        </g>
    </g>
</svg>